# xmcd CD database file generated by OrangeCD 5.2
#
# Track frame offsets:
#	150
#	14137
#	28720
#	47285
#	64032
#	80807
#	102670
#	121927
#	136495
#	153235
#	169160
#	184427
#	207217
#
# Disc length: 2987 seconds
#
# Revision: 3
# Processed by: cddbd v1.5.1PL0 Copyright (c) Steve Scherf et al.
# Submitted via: OrangeCD 5.2
#
DISCID=b70ba90d
DTITLE=Trisha Yearwood - Everybody Knows
DYEAR=1996
DGENRE=Country
TTITLE0=I Want To Live Again
TTITLE1=It's Alright
TTITLE2=Even A Cowboy Can Dream
TTITLE3=Believe Me Baby (I Lied)
TTITLE4=I Need You
TTITLE5=Little Hercules
TTITLE6=Under The Rainbow
TTITLE7=Everybody Knows
TTITLE8=Hello, I'm Gone
TTITLE9=Find A River
TTITLE10=The Chance I Take
TTITLE11=Maybe It's Love
TTITLE12=A Lover Is Forever
EXTD=
EXTT0=
EXTT1=
EXTT2=
EXTT3=
EXTT4=
EXTT5=
EXTT6=
EXTT7=
EXTT8=
EXTT9=
EXTT10=
EXTT11=
EXTT12=
PLAYORDER=
